<svg xmlns="http://www.w3.org/2000/svg" viewBox="0 0 530.34 530.34"><defs><style>.cls-1{fill:#c30d23;}.cls-2{fill:#f7f8f8;}</style></defs><title>资源 1</title><g id="图层_2" data-name="图层 2"><g id="图层_1-2" data-name="图层 1"><rect class="cls-1" width="530.34" height="530.34" rx="68.49"/><path class="cls-2" d="M230.51,325.11c-3.24,2.26-21.6,21.43-25.91,25.58,0,29.44-9.48,50.67-28.45,71.8s-46.6,31.71-82.91,31.71V165.44C93.24,111.58,159.94,72,204.6,72V223.19q16.13-17.53,45.19-48.69c19.36-20.76,56.21-61.15,62.13-67.94S329,92.6,345.41,85s50.16-11.32,101.27-11.32q-17.76,21.56-36.31,43.93T344.6,197q-47.21,57-48,58.66,19.37,10.2,63.35,37.13t58.5,37.41Q433,340.68,441,372.72t8.07,83.6Z"/></g></g></svg>